<?xml version="1.0" standalone="no"?>
<!DOCTYPE svg PUBLIC "-//W3C//DTD SVG 20010904//EN"
 "http://www.w3.org/TR/2001/REC-SVG-20010904/DTD/svg10.dtd">
<svg version="1.0" xmlns="http://www.w3.org/2000/svg"
 width="500.000000pt" height="500.000000pt" viewBox="0 0 500.000000 500.000000"
 preserveAspectRatio="xMidYMid meet">

<g transform="translate(0.000000,500.000000) scale(0.100000,-0.100000)"
fill="#000000" stroke="none">
<path d="M3055 2914 c-130 -33 -195 -106 -195 -219 0 -123 61 -193 199 -225
117 -27 254 14 312 93 16 22 28 45 26 51 -6 17 -47 20 -47 3 0 -22 -72 -83
-116 -98 -57 -18 -151 -17 -205 4 -25 9 -60 33 -79 52 -29 30 -34 43 -38 95
-5 72 1 97 30 131 83 95 273 97 346 4 12 -14 22 -31 24 -37 5 -13 48 -1 48 13
0 18 -74 91 -113 110 -38 20 -151 33 -192 23z"/>
<path d="M3957 2909 c-114 -27 -197 -116 -197 -211 0 -91 46 -160 137 -205 48
-23 69 -27 142 -27 127 0 210 35 261 111 21 31 25 48 25 113 0 65 -4 82 -24
112 -64 92 -211 138 -344 107z m218 -63 c147 -67 145 -246 -4 -314 -164 -76
-360 10 -361 156 0 59 23 105 72 139 83 57 194 65 293 19z"/>
<path d="M1350 2695 c0 -208 1 -215 20 -215 19 0 20 7 20 215 0 208 -1 215
-20 215 -19 0 -20 -7 -20 -215z"/>
<path d="M1770 2695 l0 -215 160 0 c153 0 160 1 160 20 0 19 -7 20 -135 20
l-135 0 0 195 0 195 -25 0 -25 0 0 -215z"/>
<path d="M2440 2695 l0 -215 25 0 25 0 0 215 0 215 -25 0 -25 0 0 -215z"/>
<path d="M550 2880 c0 -19 7 -20 100 -20 l100 0 0 -190 0 -190 25 0 25 0 0
190 0 190 100 0 c93 0 100 1 100 20 0 19 -7 20 -225 20 -218 0 -225 -1 -225
-20z"/>
<path d="M1285 2095 c0 -56 3 -65 18 -65 15 0 16 3 7 20 -11 21 -7 25 35 32
24 4 32 42 15 64 -7 7 -27 14 -44 14 l-31 0 0 -65z m65 40 c16 -20 5 -45 -20
-45 -16 0 -20 7 -20 30 0 33 19 40 40 15z"/>
<path d="M1837 2137 c4 -20 0 -23 -24 -22 -25 0 -28 -4 -31 -37 -2 -28 1 -37
15 -41 25 -6 81 -7 66 0 -9 3 -13 26 -13 64 0 32 -4 59 -9 59 -4 0 -6 -10 -4
-23z m1 -60 c2 -18 -2 -29 -13 -33 -24 -9 -39 10 -31 41 9 35 40 30 44 -8z"/>
<path d="M2426 2123 c-3 -21 -12 -50 -20 -65 -14 -26 -13 -28 3 -28 14 0 17 6
13 25 -4 22 -1 25 28 25 29 0 32 -3 28 -25 -4 -19 -1 -25 12 -25 15 0 15 7 -8
65 -14 36 -31 65 -38 65 -6 0 -14 -17 -18 -37z m38 -9 c9 -23 8 -24 -13 -24
-14 0 -18 5 -14 20 6 24 19 26 27 4z"/>
<path d="M3335 2095 c0 -37 4 -65 10 -65 6 0 9 26 7 65 -5 84 -17 84 -17 0z"/>
<path d="M2658 2128 c-8 -24 8 -92 22 -96 12 -4 13 -2 3 9 -15 15 -17 66 -4
71 5 2 3 8 -4 15 -10 9 -15 9 -17 1z"/>
<path d="M1416 2112 c-3 -5 4 -8 16 -8 26 1 35 -21 11 -27 -17 -4 -17 -5 0 -6
22 -1 17 -25 -6 -29 -11 -2 -17 3 -17 14 0 13 -3 15 -11 7 -19 -19 -1 -32 40
-30 l39 1 -12 41 c-8 28 -18 41 -33 43 -12 2 -24 -1 -27 -6z"/>
<path d="M1535 2074 c0 -24 5 -44 10 -44 7 0 9 15 7 35 -3 26 0 36 13 41 21 8
35 -11 35 -48 0 -16 4 -28 8 -28 11 0 3 61 -10 77 -5 6 -21 11 -36 11 -25 -1
-27 -4 -27 -44z"/>
<path d="M1670 2110 c-12 -8 -10 -10 9 -8 33 4 38 -18 6 -26 -16 -4 -25 -13
-25 -26 0 -16 7 -19 38 -17 36 1 38 2 34 32 -7 50 -29 66 -62 45z m45 -49 c3
-5 -4 -13 -16 -16 -23 -8 -34 -1 -24 14 8 13 32 14 40 2z"/>
<path d="M1915 2104 c-10 -10 -13 -24 -9 -38 11 -34 35 -44 64 -26 11 7 7 9
-15 7 -21 -1 -30 3 -33 16 -3 13 3 17 27 17 33 0 39 8 19 28 -16 16 -34 15
-53 -4z m45 -4 c0 -5 -9 -10 -21 -10 -11 0 -17 5 -14 10 3 6 13 10 21 10 8 0
14 -4 14 -10z"/>
<path d="M2025 2075 c0 -25 5 -45 11 -45 6 0 9 12 6 29 -3 21 2 33 19 45 13 9
19 16 13 16 -5 0 -15 -5 -22 -12 -9 -9 -12 -9 -12 0 0 7 -3 12 -7 12 -5 0 -8
-20 -8 -45z"/>
<path d="M2115 2075 c0 -33 4 -45 15 -45 12 0 14 10 12 45 -2 25 -9 45 -16 45
-6 0 -11 -18 -11 -45z"/>
<path d="M2205 2110 c-3 -5 0 -7 8 -4 8 3 19 -1 26 -9 9 -12 6 -16 -20 -21
-22 -4 -30 -11 -27 -23 2 -10 12 -19 23 -21 18 -3 19 -2 2 8 -21 13 -13 30 14
30 13 0 19 -6 17 -16 -2 -10 2 -19 8 -21 14 -5 5 70 -10 79 -16 11 -34 10 -41
-2z"/>
<path d="M2555 2075 c0 -25 5 -45 10 -45 6 0 9 17 8 37 -2 53 -2 53 -10 53 -5
0 -8 -20 -8 -45z"/>
<path d="M2738 2094 c-19 -42 25 -85 55 -55 9 9 5 11 -13 9 -16 -2 -25 3 -28
15 -3 13 3 17 27 17 33 0 39 8 19 28 -20 20 -48 14 -60 -14z m52 6 c0 -5 -9
-10 -21 -10 -11 0 -17 5 -14 10 3 6 13 10 21 10 8 0 14 -4 14 -10z"/>
<path d="M2863 2113 c-18 -7 -16 -30 3 -37 9 -4 19 -4 22 -1 3 3 0 5 -6 5 -7
0 -12 7 -12 15 0 18 12 19 28 3 9 -9 12 -9 12 3 0 15 -24 21 -47 12z"/>
<path d="M2970 2110 c-12 -8 -10 -10 9 -8 33 4 38 -18 6 -26 -16 -4 -25 -13
-25 -26 0 -16 7 -19 38 -17 36 1 38 2 34 32 -7 50 -29 66 -62 45z m45 -49 c3
-5 -4 -13 -16 -16 -23 -8 -34 -1 -24 14 8 13 32 14 40 2z"/>
<path d="M3085 2075 c0 -25 5 -45 10 -45 6 0 9 19 7 45 -2 25 -7 45 -11 45 -3
0 -6 -20 -6 -45z"/>
<path d="M3120 2113 c21 -8 30 -24 30 -55 0 -16 4 -28 9 -28 5 0 8 8 6 18 -14
69 -16 72 -38 71 -15 0 -17 -2 -7 -6z"/>
<path d="M3225 2111 c-3 -6 0 -9 8 -5 8 3 19 -1 26 -9 9 -12 6 -16 -20 -21
-45 -9 -36 -41 12 -42 l35 -1 -6 41 c-4 32 -10 42 -27 44 -11 2 -24 -2 -28 -7z
m45 -50 c0 -12 -29 -23 -41 -15 -5 3 -7 10 -4 15 8 12 45 12 45 0z"/>
<path d="M2901 2058 c-1 -21 -21 -24 -39 -6 -9 9 -12 9 -12 1 0 -16 40 -27 52
-15 6 6 8 16 5 24 -4 9 -6 7 -6 -4z"/>
<path d="M973 1883 c9 -2 23 -2 30 0 6 3 -1 5 -18 5 -16 0 -22 -2 -12 -5z"/>
<path d="M1053 1883 c9 -2 23 -2 30 0 6 3 -1 5 -18 5 -16 0 -22 -2 -12 -5z"/>
<path d="M1133 1883 c9 -2 23 -2 30 0 6 3 -1 5 -18 5 -16 0 -22 -2 -12 -5z"/>
<path d="M1213 1883 c9 -2 23 -2 30 0 6 3 -1 5 -18 5 -16 0 -22 -2 -12 -5z"/>
<path d="M1293 1883 c9 -2 23 -2 30 0 6 3 -1 5 -18 5 -16 0 -22 -2 -12 -5z"/>
<path d="M1373 1883 c9 -2 23 -2 30 0 6 3 -1 5 -18 5 -16 0 -22 -2 -12 -5z"/>
<path d="M1453 1883 c9 -2 23 -2 30 0 6 3 -1 5 -18 5 -16 0 -22 -2 -12 -5z"/>
<path d="M1533 1883 c9 -2 23 -2 30 0 6 3 -1 5 -18 5 -16 0 -22 -2 -12 -5z"/>
<path d="M1613 1883 c9 -2 23 -2 30 0 6 3 -1 5 -18 5 -16 0 -22 -2 -12 -5z"/>
<path d="M1693 1883 c9 -2 23 -2 30 0 6 3 -1 5 -18 5 -16 0 -22 -2 -12 -5z"/>
<path d="M1773 1883 c9 -2 23 -2 30 0 6 3 -1 5 -18 5 -16 0 -22 -2 -12 -5z"/>
<path d="M1853 1883 c9 -2 23 -2 30 0 6 3 -1 5 -18 5 -16 0 -22 -2 -12 -5z"/>
<path d="M1933 1883 c9 -2 23 -2 30 0 6 3 -1 5 -18 5 -16 0 -22 -2 -12 -5z"/>
<path d="M2013 1883 c9 -2 23 -2 30 0 6 3 -1 5 -18 5 -16 0 -22 -2 -12 -5z"/>
<path d="M2093 1883 c9 -2 23 -2 30 0 6 3 -1 5 -18 5 -16 0 -22 -2 -12 -5z"/>
<path d="M2173 1883 c9 -2 23 -2 30 0 6 3 -1 5 -18 5 -16 0 -22 -2 -12 -5z"/>
<path d="M2253 1883 c9 -2 23 -2 30 0 6 3 -1 5 -18 5 -16 0 -22 -2 -12 -5z"/>
<path d="M2333 1883 c9 -2 23 -2 30 0 6 3 -1 5 -18 5 -16 0 -22 -2 -12 -5z"/>
<path d="M2413 1883 c9 -2 23 -2 30 0 6 3 -1 5 -18 5 -16 0 -22 -2 -12 -5z"/>
<path d="M2493 1883 c9 -2 23 -2 30 0 6 3 -1 5 -18 5 -16 0 -22 -2 -12 -5z"/>
<path d="M2573 1883 c9 -2 23 -2 30 0 6 3 -1 5 -18 5 -16 0 -22 -2 -12 -5z"/>
<path d="M2653 1883 c9 -2 23 -2 30 0 6 3 -1 5 -18 5 -16 0 -22 -2 -12 -5z"/>
<path d="M2733 1883 c9 -2 23 -2 30 0 6 3 -1 5 -18 5 -16 0 -22 -2 -12 -5z"/>
<path d="M2813 1883 c9 -2 23 -2 30 0 6 3 -1 5 -18 5 -16 0 -22 -2 -12 -5z"/>
<path d="M2893 1883 c9 -2 23 -2 30 0 6 3 -1 5 -18 5 -16 0 -22 -2 -12 -5z"/>
<path d="M2973 1883 c9 -2 23 -2 30 0 6 3 -1 5 -18 5 -16 0 -22 -2 -12 -5z"/>
<path d="M3053 1883 c9 -2 23 -2 30 0 6 3 -1 5 -18 5 -16 0 -22 -2 -12 -5z"/>
<path d="M3133 1883 c9 -2 23 -2 30 0 6 3 -1 5 -18 5 -16 0 -22 -2 -12 -5z"/>
<path d="M3213 1883 c9 -2 23 -2 30 0 6 3 -1 5 -18 5 -16 0 -22 -2 -12 -5z"/>
<path d="M3293 1883 c9 -2 23 -2 30 0 6 3 -1 5 -18 5 -16 0 -22 -2 -12 -5z"/>
<path d="M3373 1883 c9 -2 23 -2 30 0 6 3 -1 5 -18 5 -16 0 -22 -2 -12 -5z"/>
<path d="M3453 1883 c9 -2 23 -2 30 0 6 3 -1 5 -18 5 -16 0 -22 -2 -12 -5z"/>
<path d="M3533 1883 c9 -2 23 -2 30 0 6 3 -1 5 -18 5 -16 0 -22 -2 -12 -5z"/>
<path d="M3613 1883 c9 -2 23 -2 30 0 6 3 -1 5 -18 5 -16 0 -22 -2 -12 -5z"/>
<path d="M3693 1883 c9 -2 23 -2 30 0 6 3 -1 5 -18 5 -16 0 -22 -2 -12 -5z"/>
<path d="M3773 1883 c9 -2 23 -2 30 0 6 3 -1 5 -18 5 -16 0 -22 -2 -12 -5z"/>
</g>
</svg>
